PathFileType	4	(X/Y/Z)	C:/Users/opensim2020/Desktop/walking_exp_matlab/subject03_walking08_straight_02.trc	
DataRate	CameraRate	NumFrames	NumMarkers	Units	OrigDataRate	OrigDataStartFrame	OrigNumFrames	
100.00	100.00	7	51	mm	100.00	1749	314	
Frame#	Time	LFHD			RFHD			LBHD			RBHD			C7			T10			CLAV			STRN			RBAK			LSHO			LUPA			LELB			LFRM			LWRA			LWRB			LFIN			RSHO			RUPA			RELB			RFRM			RWRA			RWRB			RFIN			LASI			RASI			LPSI			RPSI			LTHI			LKNE			LTIB			LANK			LHEE			LTOE			RTHI			RKNE			RTIB			RANK			RHEE			RTOE			*39			*40			*41			*42			*43			*44			*45			*46			*47			*48			*49			*50			
		X1	Y1	Z1	X2	Y2	Z2	X3	Y3	Z3	X4	Y4	Z4	X5	Y5	Z5	X6	Y6	Z6	X7	Y7	Z7	X8	Y8	Z8	X9	Y9	Z9	X10	Y10	Z10	X11	Y11	Z11	X12	Y12	Z12	X13	Y13	Z13	X14	Y14	Z14	X15	Y15	Z15	X16	Y16	Z16	X17	Y17	Z17	X18	Y18	Z18	X19	Y19	Z19	X20	Y20	Z20	X21	Y21	Z21	X22	Y22	Z22	X23	Y23	Z23	X24	Y24	Z24	X25	Y25	Z25	X26	Y26	Z26	X27	Y27	Z27	X28	Y28	Z28	X29	Y29	Z29	X30	Y30	Z30	X31	Y31	Z31	X32	Y32	Z32	X33	Y33	Z33	X34	Y34	Z34	X35	Y35	Z35	X36	Y36	Z36	X37	Y37	Z37	X38	Y38	Z38	X39	Y39	Z39	X40	Y40	Z40	X41	Y41	Z41	X42	Y42	Z42	X43	Y43	Z43	X44	Y44	Z44	X45	Y45	Z45	X46	Y46	Z46	X47	Y47	Z47	X48	Y48	Z48	X49	Y49	Z49	X50	Y50	Z50	X51	Y51	Z51	

197	1.960	1524.10681	-404.28577	1599.93726	1391.42139	-391.79840	1604.56531	1531.82361	-270.66580	1578.77405	1400.45459	-263.65378	1582.29858	1465.19312	-213.08040	1414.99316	1459.08252	-171.93826	1099.09033	1469.02319	-330.38031	1332.71887	1470.90808	-370.82336	1167.83667	1358.71033	-162.02332	1240.49438	1623.76929	-276.03842	1366.68420	1686.52869	-240.03111	1167.70068	1694.73840	-232.53030	1044.03516	1691.49207	-249.47791	914.91486	1657.78174	-263.25217	797.78674	1706.08154	-235.25137	801.96246	1694.40222	-246.73505	718.75940	1308.68738	-299.21094	1360.88586	1230.79517	-346.21686	1146.38843	1219.43982	-391.22260	1043.61194	1224.85327	-450.34970	920.59686	1269.55640	-502.76770	841.02136	1221.63989	-483.14151	825.73761	1237.16870	-527.65503	768.38605	1578.10156	-338.47852	935.67737	1340.19055	-334.39355	930.54950	1531.71790	-174.50262	953.07635	1381.66492	-175.45392	965.43512	1633.60413	-352.04312	638.36011	1590.07483	-423.15082	476.24600	1592.90735	-421.67349	283.38385	1559.33618	-462.77850	76.03408	1518.02832	-432.65079	33.73369	1537.63110	-615.41919	67.99190	1307.47900	-242.08000	640.99768	1345.52063	-222.05679	462.52179	1345.60327	-141.12097	287.62708	1396.28809	-70.57411	82.68006	1447.47278	-23.27742	55.87904	1405.79150	-207.23610	36.64658	1480.49243	-330.38504	1675.65112																																	 
198	1.970	1524.81226	-412.98923	1599.02673	1392.11023	-400.26697	1603.74524	1532.69946	-279.38260	1577.94739	1401.34033	-272.10162	1581.62122	1466.27393	-221.57594	1414.43677	1460.27966	-180.12311	1098.47412	1469.59216	-338.95984	1331.77368	1471.33020	-379.30096	1166.93774	1360.08447	-169.85406	1239.82092	1624.62561	-285.02100	1365.78174	1687.24683	-248.70364	1166.81909	1695.29578	-240.80659	1043.17822	1691.87976	-257.07376	913.90942	1657.31165	-269.72171	796.35052	1706.23254	-242.34752	800.93958	1694.42432	-253.10205	717.68048	1309.25562	-307.34921	1359.85059	1231.77576	-353.54138	1145.06592	1220.47632	-398.51672	1042.33643	1226.24512	-458.11554	919.62115	1270.95435	-512.11230	841.01678	1223.59363	-491.42050	824.87573	1239.15039	-536.35760	767.97974	1578.31543	-347.44077	934.46466	1340.37219	-341.81946	929.68011	1532.97302	-183.14183	952.31073	1382.84521	-183.15637	964.86621	1634.16125	-359.48740	636.75824	1589.39587	-429.33853	474.53088	1592.83716	-433.40344	282.67068	1560.67700	-482.24518	76.50326	1519.62427	-453.56815	33.25810	1538.12366	-635.55615	72.56611	1307.70984	-247.60298	640.69128	1345.30408	-226.55020	462.31903	1345.54968	-143.72202	288.23230	1396.55554	-71.27922	83.90971	1447.58655	-23.86437	57.44660	1405.54736	-207.43132	36.62753																																				 
199	1.980	1525.52161	-421.75809	1598.23145	1392.83118	-408.79437	1603.03333	1533.58020	-288.14069	1577.19897	1402.35291	-280.57172	1580.98962	1467.39661	-230.17116	1413.71375	1461.48608	-188.55360	1097.69263	1470.27893	-347.49283	1331.02405	1471.77014	-387.83755	1166.24182	1361.42371	-177.72166	1239.15784	1625.52991	-294.12604	1365.01697	1687.98535	-257.63733	1165.97998	1695.83398	-249.31862	1042.25110	1692.25989	-265.01144	912.92181	1660.78528	-280.59201	797.91089	1706.63855	-249.60373	800.05133	1694.48279	-259.83664	716.62286	1309.95544	-315.35449	1358.88208	1232.84619	-360.70160	1143.80920	1221.58704	-405.53940	1041.04456	1227.75342	-465.69559	918.65894	1272.54199	-520.40936	840.66876	1225.52600	-499.29080	823.99500	1241.15869	-544.67603	767.47784	1578.57397	-356.60568	933.38184	1340.54944	-349.32236	928.90076	1534.33203	-192.06859	951.46283	1384.30115	-191.06314	964.25043	1634.42566	-367.13986	635.29553	1588.70093	-435.38211	472.77780	1592.99548	-444.28351	282.10349	1562.25879	-499.79697	77.06799	1521.33813	-472.68710	32.88194	1538.57959	-653.71271	76.53041	1307.97327	-253.31129	640.51544	1345.21448	-231.29839	462.18759	1345.47327	-146.47963	288.86981	1396.39990	-71.85862	85.33687	1447.52393	-24.28874	59.32727	1405.42883	-207.55551	36.57851																																				 
200	1.990	1526.19238	-430.54477	1597.48096	1393.51843	-417.34021	1602.43262	1534.59924	-296.95819	1576.55786	1403.29822	-289.08109	1580.44946	1468.37878	-238.91101	1412.95532	1462.84473	-197.04910	1097.06665	1470.95374	-356.07123	1330.32007	1472.18201	-396.38373	1165.56616	1362.88904	-185.62970	1238.53979	1626.43408	-303.28287	1364.24316	1688.75012	-266.91537	1165.14722	1696.44263	-258.21445	1041.41516	1692.66577	-273.22168	911.99677	1657.74231	-284.33469	794.28943	1706.87244	-257.41913	799.15668	1694.58618	-266.84277	715.64783	1310.57483	-323.40363	1357.99768	1234.06543	-367.81915	1142.54297	1222.83167	-412.42752	1039.71484	1229.30933	-473.01587	917.51685	1274.36670	-527.76019	839.74847	1227.58655	-506.75101	822.92615	1243.03662	-552.72070	766.78558	1578.87524	-365.91132	932.41541	1340.66895	-357.03040	928.28351	1535.96375	-201.03442	950.86011	1385.92957	-198.97768	963.78894	1634.38696	-374.84976	633.96375	1588.09326	-441.48764	471.09174	1593.26099	-454.47830	281.71640	1563.29810	-515.41064	77.42238	1523.25793	-488.65277	33.32586	1539.17871	-669.76953	79.77455	1307.83008	-259.09338	640.33160	1345.08044	-236.37453	462.05020	1345.35449	-149.41699	289.62186	1395.92249	-72.42344	86.89362	1447.28259	-24.56895	61.47934	1405.22900	-207.69275	36.50248	1483.02002	-356.61380	1673.02832																																	 
201	2.000	1526.83655	-439.41165	1596.81970	1394.28833	-425.85785	1601.88489	1535.55640	-305.77942	1575.88623	1404.29468	-297.68274	1579.93237	1469.45618	-247.57501	1412.38953	1464.37744	-205.56766	1096.55981	1471.70874	-364.79803	1329.86255	1472.64917	-404.94315	1164.93530	1364.29700	-193.62712	1237.91528	1627.33545	-312.55933	1363.56921	1689.56348	-276.43292	1164.42200	1697.05505	-267.31796	1040.62793	1693.12915	-281.74097	911.18536	1658.62683	-292.43167	793.76489	1707.43433	-265.32553	798.38885	1694.73242	-274.16208	714.73633	1311.34326	-331.41885	1357.26672	1235.33447	-374.80911	1141.34680	1224.20618	-419.15054	1038.37073	1230.86633	-479.86880	916.32544	1275.63306	-535.96802	839.40466	1229.59595	-513.85260	821.74323	1244.92358	-560.12097	765.97729	1579.21631	-375.32864	931.57239	1341.02185	-364.81592	927.72021	1537.66138	-210.20589	950.32758	1387.66638	-207.14149	963.21381	1634.11194	-382.60110	632.67981	1587.51672	-447.75003	469.45831	1593.56470	-463.89105	281.25262	1564.95569	-528.71252	77.90879	1525.02710	-502.33496	33.26250	1539.82300	-683.10950	82.11099	1308.14343	-265.34955	640.35083	1344.91577	-241.75020	462.03589	1345.21667	-152.64946	290.54916	1395.61841	-73.14133	88.65198	1447.08752	-25.15600	63.82993	1405.04688	-207.85641	36.43615	1483.96509	-365.32996	1672.37830																																	 
202	2.010	1527.58386	-448.23987	1596.22339	1395.01880	-434.43387	1601.38611	1536.48474	-314.62100	1575.30261	1405.39233	-306.26248	1579.41589	1470.71008	-256.25323	1411.97498	1465.81873	-214.34230	1095.94531	1472.33447	-373.50684	1329.19055	1473.25012	-413.69995	1164.46045	1365.77148	-201.77953	1237.31262	1628.28210	-321.91119	1363.00769	1690.34167	-286.05301	1163.76636	1697.75195	-276.76703	1039.98755	1693.59717	-290.56488	910.47388	1660.98975	-303.13553	794.70215	1707.79004	-273.76913	797.67188	1694.85449	-281.60782	714.02484	1312.30896	-338.83743	1356.67529	1236.64453	-381.61118	1140.16638	1225.62024	-425.67578	1037.09253	1232.55859	-486.58978	915.09961	1277.43848	-542.63080	838.35199	1231.64624	-520.51147	820.48645	1246.75940	-567.11267	765.00397	1579.67932	-384.93600	930.88776	1341.62061	-372.80896	927.35028	1539.41443	-219.70287	949.71350	1389.44983	-215.31490	962.85828	1633.83154	-390.46820	631.57861	1587.19775	-454.67688	468.16986	1593.89465	-472.50302	280.65881	1565.97168	-539.51794	77.69431	1526.26306	-513.87097	32.29395	1540.41382	-693.87122	83.63141	1308.54053	-271.73651	640.39471	1344.84033	-247.48251	461.97983	1345.14575	-156.23177	291.55450	1395.34717	-74.06804	90.60701	1446.88110	-25.83436	66.48344	1404.88135	-208.04216	36.35914	1484.84558	-374.04099	1671.85754																																	 
203	2.020	1528.27295	-457.09842	1595.65747	1395.76282	-442.90933	1601.00171	1537.54285	-323.52386	1574.78052	1406.36792	-314.84677	1578.96265	1471.86902	-264.96323	1411.47754	1467.39197	-223.35078	1095.32874	1473.04016	-382.22769	1328.76477	1473.88538	-422.68301	1164.08459	1367.27759	-209.98488	1236.77795	1629.22656	-331.33633	1362.53235	1691.15576	-295.91641	1163.24927	1698.37476	-286.38208	1039.45081	1694.15991	-299.67502	909.84357	1661.30054	-311.43365	793.96710	1708.54138	-282.46420	797.11676	1695.19348	-289.74881	713.29657	1313.14417	-346.83786	1356.10938	1238.07764	-388.39716	1139.07019	1227.14233	-432.04437	1035.81543	1234.19373	-492.91144	913.84668	1279.05969	-549.74396	837.46747	1233.70801	-526.83459	819.17902	1248.64355	-573.87085	764.00555	1580.16956	-394.64697	930.33398	1342.16760	-381.03543	927.05786	1541.18958	-229.26430	949.41876	1391.26331	-223.80637	962.47852	1633.48364	-398.73941	630.62427	1587.08032	-462.38077	467.16232	1594.35364	-480.48056	279.81067	1566.02930	-547.66223	76.48995	1526.88831	-522.22998	30.95329	1541.00500	-701.96790	83.66250	1308.86462	-278.52841	640.49567	1344.68958	-253.58461	461.99246	1345.08984	-160.01149	292.61026	1395.28479	-75.43486	92.69329	1446.62988	-26.85628	69.20912	1404.69421	-208.25894	36.31503	1486.09180	-382.59183	1673.18420																																	 
